# xmcd
#
# Track frame offsets:
#	150
#	14981
#	28523
#	42850
#	61480
#	73348
#	94153
#	106679
#	123206
#	135114
#
# Disc length: 1987 seconds
# Revision: 0
# Processed by: cddbd v1.5.2PL0 Copyright (c) Steve Scherf et al.
# Submitted via: dBpowerAMP V12.0
#
DISCID=8307c10a
DTITLE=Billy Cate - Songs Of San Antonio
DYEAR=2005
DGENRE=Country
TTITLE0=Across The Alley From The Alamo
TTITLE1=Home In San Antone
TTITLE2=I Left My Heart In San Antone
TTITLE3=Rose, My Rose Of San Antone
TTITLE4=Rose Of San Antone
TTITLE5=San Antonio Rose
TTITLE6=Somewhere South Of San Antone
TTITLE7=There's Still A Lot Of Love In San Antone
TTITLE8=Trail To San Antone
TTITLE9=Waltzing In Old San Antone
EXTD=
EXTT0=
EXTT1=
EXTT2=
EXTT3=
EXTT4=
EXTT5=
EXTT6=
EXTT7=
EXTT8=
EXTT9=
PLAYORDER=
